<svg width="26" height="26" viewBox="0 0 26 26" fill="none" xmlns="http://www.w3.org/2000/svg">
<path d="M21.928 4.77902C21.928 3.92219 21.5876 3.10046 20.9818 2.49459C20.3759 1.88872 19.5542 1.54835 18.6973 1.54835C17.8405 1.54835 17.0188 1.88872 16.4129 2.49459C15.807 3.10046 15.4667 3.92219 15.4667 4.77902C15.4667 6.07264 16.2313 7.18049 17.3297 7.69605C17.2193 9.82829 15.6201 10.5525 12.8404 11.5944C11.6693 12.0346 10.3784 12.5219 9.27454 13.2555V7.70816C9.94522 7.40231 10.4909 6.87594 10.8207 6.21672C11.1505 5.55749 11.2446 4.80518 11.0872 4.08505C10.9298 3.36492 10.5305 2.72042 9.95579 2.25887C9.38105 1.79731 8.66555 1.54656 7.92843 1.54835C7.19206 1.54798 6.47771 1.79949 5.90401 2.26112C5.3303 2.72275 4.93176 3.36673 4.77455 4.08612C4.61734 4.80551 4.71092 5.55703 5.03976 6.2159C5.3686 6.87477 5.91291 7.40133 6.58231 7.70816V18.0046C6.02068 18.2607 5.54447 18.6729 5.21037 19.1919C4.87626 19.711 4.69833 20.3151 4.69775 20.9324C4.69775 21.7892 5.03813 22.6109 5.644 23.2168C6.24986 23.8227 7.0716 24.1631 7.92843 24.1631C8.78525 24.1631 9.60699 23.8227 10.2129 23.2168C10.8187 22.6109 11.1591 21.7892 11.1591 20.9324C11.1591 19.6388 10.3945 18.5309 9.29608 18.0154C9.40646 15.8845 11.007 15.1589 13.7854 14.117C16.518 13.0913 19.8981 11.8138 20.0313 7.71489C20.596 7.45927 21.0751 7.04649 21.4114 6.52588C21.7477 6.00526 21.9271 5.39883 21.928 4.77902ZM7.92843 2.91465C8.17308 2.91465 8.41534 2.96284 8.64137 3.05647C8.8674 3.15009 9.07278 3.28732 9.24578 3.46032C9.41878 3.63332 9.55601 3.8387 9.64963 4.06473C9.74326 4.29076 9.79145 4.53302 9.79145 4.77767C9.79145 5.02233 9.74326 5.26459 9.64963 5.49062C9.55601 5.71665 9.41878 5.92203 9.24578 6.09503C9.07278 6.26803 8.8674 6.40526 8.64137 6.49888C8.41534 6.59251 8.17308 6.6407 7.92843 6.6407C7.43432 6.6407 6.96046 6.44441 6.61107 6.09503C6.26169 5.74565 6.06541 5.27178 6.06541 4.77767C6.06541 4.28357 6.26169 3.8097 6.61107 3.46032C6.96046 3.11094 7.43432 2.91465 7.92843 2.91465ZM7.92843 22.7967C7.43396 22.7967 6.95976 22.6003 6.61012 22.2507C6.26048 21.9011 6.06406 21.4268 6.06406 20.9324C6.06406 20.4379 6.26048 19.9637 6.61012 19.6141C6.95976 19.2644 7.43396 19.068 7.92843 19.068C8.42289 19.068 8.8971 19.2644 9.24673 19.6141C9.59637 19.9637 9.79279 20.4379 9.79279 20.9324C9.79279 21.4268 9.59637 21.9011 9.24673 22.2507C8.8971 22.6003 8.42289 22.7967 7.92843 22.7967ZM18.6973 6.64339C18.2029 6.64339 17.7287 6.44696 17.379 6.09733C17.0294 5.74769 16.833 5.27348 16.833 4.77902C16.833 4.28456 17.0294 3.81035 17.379 3.46071C17.7287 3.11108 18.2029 2.91465 18.6973 2.91465C19.1918 2.91465 19.666 3.11108 20.0156 3.46071C20.3653 3.81035 20.5617 4.28456 20.5617 4.77902C20.5617 5.27348 20.3653 5.74769 20.0156 6.09733C19.666 6.44696 19.1918 6.64339 18.6973 6.64339Z" fill="#26282D"/>
</svg>
